<?xml version="1.0" encoding="UTF-8"?>
<svg width="512px" height="360px" viewBox="0 0 512 360" version="1.1" xmlns="http://www.w3.org/2000/svg" xmlns:xlink="http://www.w3.org/1999/xlink">
    <!-- Generator: Sketch 55.1 (78136) - https://sketchapp.com -->
    <title>Mask</title>
    <desc>Created with Sketch.</desc>
    <defs>
        <linearGradient x1="50%" y1="0%" x2="50%" y2="100%" id="linearGradient-1">
            <stop stop-color="#317954" offset="0%"></stop>
            <stop stop-color="#6DD3BA" offset="100%"></stop>
        </linearGradient>
        <path d="M501.301263,56.3278125 C495.412833,34.1559375 478.063479,16.6940625 456.035068,10.768125 C416.106992,0 256,0 256,0 C256,0 95.8939454,0 55.9649317,10.768125 C33.9365211,16.695 16.5871673,34.1559375 10.6987369,56.3278125 C0,96.515625 0,180.36375 0,180.36375 C0,180.36375 0,264.211875 10.6987369,304.399688 C16.5871673,326.571563 33.9365211,343.305938 55.9649317,349.231875 C95.8939454,360 256,360 256,360 C256,360 416.106055,360 456.035068,349.231875 C478.063479,343.305937 495.412833,326.571563 501.301263,304.399687 C512,264.211875 512,180.36375 512,180.36375 C512,180.36375 512,96.515625 501.301263,56.3278125 Z M203.636001,256.491562 L203.636001,104.235938 L337.453651,180.365625 L203.636001,256.491562 Z" id="path-2"></path>
    </defs>
    <g id="Symbols" stroke="none" stroke-width="1" fill="none" fill-rule="evenodd">
        <mask id="mask-3" fill="white">
            <use xlink:href="#path-2"></use>
        </mask>
        <use id="Mask" fill="url(#linearGradient-1)" fill-rule="nonzero" xlink:href="#path-2"></use>
    </g>
</svg>